<?xml version="1.0" encoding="UTF-8"?>
<svg width="1200pt" height="1200pt" version="1.1" viewBox="0 0 1200 1200" xmlns="http://www.w3.org/2000/svg" fill="#f37920">
 <path d="m375 275.02c-13.828 0-24.984 11.156-24.984 24.984 0 6.6094 2.625 12.984 7.3125 17.672s11.062 7.3125 17.672 7.3125h14.484l56.016 156.79-49.922 46.922c-39.281-33.469-90.094-53.719-145.6-53.719-123.98 0-225 101.02-225 225s101.02 225 225 225c115.5 0 211.08-87.75 223.6-200.02h110.48c7.0781 0 13.828-3 18.562-8.25l221.86-246 14.438 33.703c-67.922 38.812-113.91 111.94-113.91 195.56 0 123.98 101.02 225 225 225s225-101.02 225-225-101.02-225-225-225c-22.641 0-44.484 3.4219-65.109 9.6562l-46.969-109.64h87.047c7.2188 0 12.516 5.2969 12.516 12.516s-5.2969 12.516-12.516 12.516v-0.046875c-13.781 0-24.984 11.203-24.984 25.031 0 6.6094 2.625 12.984 7.3125 17.672s11.062 7.3125 17.672 7.3125c34.219 0 62.484-28.266 62.484-62.484 0.046875-34.219-28.266-62.531-62.484-62.531h-125.02 0.046875c-8.4375 0-16.266 4.2188-20.906 11.25s-5.4375 15.891-2.1094 23.625l17.203 40.125h-324.79l-26.812-75h57.422c6.6094 0 12.984-2.625 17.672-7.3125s7.3125-11.062 7.3125-17.672-2.625-12.984-7.3125-17.672-11.062-7.3125-17.672-7.3125zm112.27 174.98h288.66l-202.97 225h-5.3438zm-237.28 75c41.344 0 79.266 14.203 109.12 38.016l-126.28 118.73c-16.453 15.562-5.4844 43.266 17.156 43.266h173.21c-12.047 84.984-84.75 150-173.21 150-96.938 0-174.98-78.047-174.98-175.03 0-96.938 78.047-174.98 174.98-174.98zm699.98 0c96.938 0 174.98 78.047 174.98 174.98s-78.047 174.98-174.98 174.98-174.98-78.047-174.98-174.98c0-63.422 33.422-118.78 83.672-149.48l68.297 159.32 0.046875 0.046875c2.625 6.0938 7.5469 10.922 13.688 13.359 6.1875 2.4844 13.078 2.3906 19.172-0.23438s10.922-7.5469 13.406-13.688c2.4375-6.1875 2.3438-13.078-0.28125-19.172l-68.25-159.28c14.438-3.8438 29.625-5.8594 45.281-5.8594zm-486.1 8.2031 50.672 141.79h-40.969c-4.5469-40.875-20.109-78.516-43.641-109.88zm-70.453 66.281c15.375 21.938 25.828 47.672 29.766 75.516h-110.11z"/>
</svg>
