<?xml version="1.0" encoding="utf-8"?>
<!-- Generator: Adobe Illustrator 16.0.0, SVG Export Plug-In . SVG Version: 6.00 Build 0)  -->
<!DOCTYPE svg PUBLIC "-//W3C//DTD SVG 1.1//EN" "http://www.w3.org/Graphics/SVG/1.1/DTD/svg11.dtd">
<svg version="1.1" id="Layer_1" xmlns="http://www.w3.org/2000/svg" xmlns:xlink="http://www.w3.org/1999/xlink" x="0px" y="0px"
	 width="274.2px" height="443.433px" viewBox="112.8 153.367 274.2 443.433" enable-background="new 112.8 153.367 274.2 443.433"
	 xml:space="preserve">
<defs>
    <style>
      .cls-1 {
        fill: #33c2df;
      }

      .cls-1, .cls-2, .cls-3 {
        stroke-width: 0px;
      }

      .cls-2 {
        fill: #f37920;
      }

      .cls-3 {
        fill: #fff;
      }
    </style>
 </defs>
<g id="s2jEJS">
	<g>
		<path class="cls-3" d="M300.1,275.1c0,29.3-21.399,50.6-50.8,50.6c-27.8,0-55.3-24.6-55.2-49.4c0.1-29.2,29.4-56.5,60.2-56.3
			C277.5,220.2,300.1,247.4,300.1,275.1z M231.2,309.6c-3.3-5-5.8-8.5-7.9-12.2c-12.1-20.7-3.3-43.8,19.4-51.3
			c11.5-3.8,21.399-0.5,29.2,9.9c6.899,9.1,7.6,21.8,1.5,30.2c-4.801,6.6-12,10.3-19.2,6.6c-4.2-2.1-6.6-8.6-8.6-13.5
			c-0.6-1.5,2.7-4.6,4.2-7c1.8,1.7,3.8,3.3,5.5,5.1c1.9,2,3.5,4.2,5.2,6.3c1.8-2.9,4.7-5.7,5.1-8.7c1-9.5-5.1-17.1-13.3-17.9
			c-11.8-1.2-22.3,5.4-21.7,15.9c0.5,9,3.1,19.2,8.3,26.3c9.9,13.5,33.8,12.3,42.8-0.5c11.6-16.5,7.8-41.8-8.8-58.1
			c-12.801-12.6-31.8-12.7-48.8-0.2c-23.9,17.6-20.7,56.1,7.3,69L231.2,309.6z"/>
		<path class="cls-3" d="M198.7,293.5c-4.7,3.9-6.6,6.3-9.1,7.3c-7.1,2.9-14.3,5.6-21.7,7.7c-2.4,0.7-5.4-0.7-8.1-1.1c1-2.8,1.1-7.3,3-8.2
			c8-3.9,16.3-7.1,24.8-9.6C190,288.9,193.3,291.5,198.7,293.5z"/>
		<path class="cls-3" d="M339.1,284.4c-9.199-1.1-16.6-1.7-23.8-3.2c-2.399-0.5-4.3-3.3-6.399-5c2-2.1,4.199-6.1,6-5.9c9.1,0.8,18.1,2.6,27,4.5
			c1.1,0.2,2.8,4.1,2.199,5C342.7,282,340.1,283.6,339.1,284.4L339.1,284.4z"/>
		<path class="cls-3" d="M242.2,198.2c0,4,0.7,8.2-0.3,11.9c-0.6,2.4-3.7,4.1-5.7,6.1c-1.6-2-4.4-3.8-4.6-5.9c-0.7-7.6-1-15.4-0.3-23
			c0.2-2.6,3.8-4.9,5.9-7.3c1.6,2.6,3.8,5.1,4.5,8c0.8,3.2,0.2,6.7,0.2,10.1c0.1,0,0.2,0,0.3,0V198.2z"/>
		<path class="cls-3" d="M214.9,362.9c3.2-10.7,5.9-20.5,9.2-30.1c0.4-1.3,4-2.9,5.1-2.4c1.8,0.8,4.3,3.8,3.9,5.2c-2.9,10.3-6.4,20.5-10,30.5
			c-0.4,1.1-3.8,2.3-4.5,1.8C216.9,366.6,215.9,364.3,214.9,362.9z"/>
		<path class="cls-3" d="M173,272c-4.3,0-8.6,0.5-12.8-0.2c-1.8-0.3-4.3-3-4.4-4.7c0-1.7,2.4-4.9,3.9-5c8.5-0.9,17-1.4,25.6-1.2
			c1.8,0,5.3,3.8,5,4.9c-0.7,2.4-3.1,5.4-5.4,6c-3.7,1-7.9,0.3-11.8,0.3l0,0L173,272z"/>
		<path class="cls-3" d="M211.6,316.7c-2.8,4.7-3.7,7-5.4,8.7c-5.4,5.4-10.9,10.8-16.8,15.6c-1.6,1.4-4.7,1-7.2,1.4c-0.1-2.8-1.5-6.7-0.2-8.2
			c5.8-6.7,12.1-13,18.9-18.7c1.6-1.3,5.8,0.5,10.6,1.1L211.6,316.7z"/>
		<path class="cls-3" d="M307.3,293c7.7,6.6,15,12.8,22,19.3c0.601,0.6-0.6,4.3-1.899,5.4c-1.301,1-4.301,1.5-5.7,0.6
			c-6.8-4.1-13.4-8.6-19.601-13.4c-1.399-1.1-1.899-4.6-1.199-6.4c0.699-1.9,3.399-3,6.5-5.5H307.3z"/>
		<path class="cls-3" d="M196.5,194c4.1,3.5,6.1,4.5,7.2,6.2c3.6,5.4,7.5,10.7,10,16.5c1.1,2.5-1,6.4-1.6,9.6c-2.7-1.2-6.5-1.7-8.1-3.7
			c-3.9-5.1-7.5-10.7-9.8-16.6c-1.1-2.7,1.1-6.6,2.2-12H196.5z"/>
		<path class="cls-3" d="M196.9,240.1c-2.8,1.1-5.7,3.4-7.5,2.7c-7.3-2.9-14.5-6.4-21.4-10.3c-1.5-0.8-2.3-4.3-2-6.3c0.2-1.3,3.6-3.5,4.5-3
			c8,3.5,15.9,7.4,23.7,11.5c1,0.5,1.3,2.6,2.6,5.4H196.9z"/>
		<path class="cls-3" d="M307.4,259.1c-1.801-1.3-4-2-4.4-3.3c-0.5-1.4,0.2-4.3,1.3-4.8c8.3-4.3,16.8-8.4,25.4-12.2c1-0.4,4,1.1,4.3,2.3
			c0.5,1.7,0,5-1.1,5.5C324.6,251,316,254.9,307.4,259.1L307.4,259.1z"/>
		<path class="cls-3" d="M284.4,321.3c3.5,1.9,5,2.1,5.5,3c4.199,7.1,8.399,14.2,11.899,21.7c0.8,1.6-1.5,4.7-2.399,7.1
			c-2.2-1.2-5.101-1.8-6.4-3.7c-3.8-5.6-7.5-11.4-10.1-17.6c-1.101-2.5,0.8-6.3,1.5-10.6V321.3z"/>
		<path class="cls-3" d="M284.6,182.6c-3.899,11.1-7,20.5-10.8,29.5c-0.399,1-6.8,1.2-7.5,0c-4.3-7.3,6.7-27.2,18.3-29.6V182.6z"/>
		<path class="cls-3" d="M318,210.4c-1.8,3.6-2.2,5.5-3.4,6.7c-5.399,5.4-10.699,10.9-16.5,15.8c-1.6,1.4-4.899,0.8-7.399,1.1
			c0.1-2.5-0.7-6,0.6-7.3c6-6.1,12.4-11.7,19.101-17c1.3-1,4.399,0.4,7.699,0.8L318,210.4z"/>
		<path class="cls-3" d="M264.9,351c0,3.7,0.399,7.4-0.2,11c-0.3,1.7-2.3,4.1-3.7,4.2c-1.4,0.1-4.1-2.1-4.3-3.5c-1-7.6-1.7-15.2-1.7-22.9
			c0-1.9,3.1-3.7,4.7-5.6c1.7,1.9,4.3,3.6,4.8,5.8c0.8,3.5,0.2,7.3,0.2,11H264.9z"/>
	</g>
</g>
<g>
	<g>
		<path class="cls-1" d="M112.9,450.5v-7.4c3.9-1.3,8.1-2.199,12.3-2.6c4.2-0.4,8.6-0.6,12.8-0.6V556.1c1.2-0.199,3.2-0.399,6.2-0.699
			c3-0.301,6-0.601,9.3-0.9c3.2-0.2,6.3-0.5,9.3-0.6c3-0.2,5.1-0.2,6.4-0.2c1.3,0,2.6,0,4.3,0.2c1.7,0.199,3.4,0.399,4.9,0.6
			s2.9,0.5,3.9,0.9c1.1,0.3,1.6,0.6,1.6,0.699V588.2h-62.2l-3-2.5l-0.4-6.8c-0.2-4.5-0.6-10.4-1-17.601c-0.4-7.2-0.8-15.5-1.2-24.7
			c-0.4-9.199-0.8-18.6-1.2-28c-0.4-9.5-0.8-18.6-1.2-27.5c-0.4-8.899-0.7-16.6-0.9-23.199v-7.4H112.9z"/>
		<path class="cls-1" d="M195.1,551c-0.5-12.5-1-25.1-1.6-37.9c-0.6-12.8-1.1-25.399-1.6-37.899s-0.7-24.4-0.7-35.5h29.9l0.2,149.6l-25.4-2.5
			c0-11.399-0.2-23.3-0.7-35.8H195.1z"/>
		<path class="cls-1" d="M255.1,466.6h-22.5l-0.5-2.699c-0.3-1.801-0.7-4-1-6.7c-0.3-2.7-0.6-5.3-0.9-8.101c-0.2-2.8-0.5-5.199-0.6-7.199
			c0-0.801,0-2.5-0.1-4.9c0-2.5-0.1-4.1-0.1-4.9h12.1l66.9,2.5l3,2.5V464.2h-26.7c-0.2,0-0.4,1.899-0.7,5.7
			c-0.3,3.8-0.7,8.3-1,13.699c-0.3,5.301-0.6,10.9-0.9,16.7c-0.3,5.8-0.399,10.601-0.399,14.601s0,3.899-0.101,6.8
			c0,2.899-0.1,6.2-0.1,10s0,7.399-0.1,11.5c0,4-0.101,8.3-0.101,12.7c0,4.399,0,11.699-0.2,16.899c-0.199,5.2-0.199,10-0.199,14.4
			v9.6h-25.701V466.7L255.1,466.6z"/>
	</g>
	<path class="cls-1" d="M335.7,458.8c-1,0-2.4,0.4-4.2,1.2c-1.6,0.7-3.1,1.5-4.7,2.4c-1.6,0.899-3.1,2-4.5,3.1c-1.5,1.2-2.6,2.2-3.3,3l-0.5,0.6
		v7.9c0,9.6,0.2,19.1,0.5,28.2c0.4,9.1,0.8,18.3,1.3,27.3s1,18.1,1.4,27.1c0.399,9,0.7,18.4,1,27.801l0,0c0,1.1,1,2.1,2.1,2.1h3.601
		c1.899,0,3.899,0,5.899,0c2.101,0,4.101,0,5.9,0h14.6c5,0,9.8,0,14.4-0.3c4.6-0.2,10-0.8,16-1.7l0,0c1-0.2,1.8-1,1.8-2.1V460.7
		c0-1.2-0.9-2.101-2.1-2.101H335.6L335.7,458.8z M338.6,509.8c-0.399-5.3-0.6-10.899-0.6-16.6c0,0,0.2-0.2,0.3-0.3h23.8
		c1.101,0,2,0.8,2.101,1.899c0.2,1.7,0.3,3.4,0.5,5c0.3,2.7,0.5,5.4,0.6,7.9c0.2,2.5,0.3,5.1,0.4,7.7c0.1,2.6,0.2,5.3,0.2,8.199
		V539.2c0,2.3,0,4.5,0,6.7c0,2.199,0,4.5,0,6.8v1.2c0,1.1-0.801,1.899-1.801,2.1c-3.3,0.4-6.6,0.8-9.899,0.9
		c-3.2,0.199-6.4,0.3-9.7,0.399c-1.2,0-2.1-0.899-2.1-2.1c0-4.4-0.301-8.7-0.601-12.9C341.4,536.9,340.9,531.4,340.4,526
		s-1-10.8-1.4-16.3L338.6,509.8z"/>
</g>
<g>
	<path class="cls-2" d="M370.9,274.2c1,32.8-15.301,66-39.2,88.1C297.6,394,247.2,405,204.5,385.2c-38.7-18-67.9-56.1-74.3-98.3
		c-0.7-4.7-1.1-9.5-1.3-14.3c-0.4-16.2,1.8-32.3,7.1-47.7c27.5-79.7,145-94.8,199.7-35.2C356.2,212.1,369.9,243.3,370.9,274.2
		L370.9,274.2z"/>
	<g id="s2jEJS-2">
		<g>
			<path class="cls-3" d="M300.1,275.3c0,29.3-21.399,50.6-50.8,50.6c-27.8,0-55.3-24.6-55.2-49.4c0.1-29.2,29.4-56.5,60.2-56.3
				C277.5,220.4,300.1,247.6,300.1,275.3z M231.1,309.8c-3.3-5-5.8-8.5-7.9-12.2c-12.1-20.7-3.3-43.8,19.4-51.3
				c11.5-3.8,21.4-0.5,29.2,9.9c6.9,9.1,7.601,21.8,1.5,30.2c-4.8,6.6-12,10.3-19.2,6.6c-4.2-2.1-6.6-8.6-8.6-13.5
				c-0.6-1.5,2.7-4.6,4.2-7c1.8,1.7,3.8,3.3,5.5,5.1c1.899,2,3.5,4.2,5.2,6.3c1.8-2.9,4.699-5.7,5.1-8.7c1-9.5-5.1-17.1-13.3-17.9
				c-11.8-1.2-22.3,5.4-21.7,15.9c0.5,9,3.1,19.2,8.3,26.3c9.9,13.5,33.8,12.3,42.8-0.5c11.601-16.5,7.801-41.8-8.8-58.1
				c-12.8-12.6-31.8-12.7-48.8-0.2c-23.9,17.6-20.7,56.1,7.3,69L231.1,309.8z"/>
			<path class="cls-3" d="M194.7,293.7c-4.7,3.9-6.6,6.3-9.1,7.3c-7.1,2.9-14.3,5.6-21.7,7.7c-2.4,0.7-5.4-0.7-8.1-1.1c1-2.8,1.1-7.3,3-8.2
				c8-3.9,16.3-7.1,24.8-9.6C186,289.1,189.3,291.7,194.7,293.7z"/>
			<path class="cls-3" d="M339,284.5c-9.2-1.1-16.6-1.7-23.8-3.2c-2.4-0.5-4.3-3.3-6.4-5c2-2.1,4.2-6.1,6-5.9c9.101,0.8,18.101,2.6,27,4.5
				c1.101,0.2,2.8,4.1,2.2,5C342.6,282.1,340,283.7,339,284.5L339,284.5z"/>
			<path class="cls-3" d="M244.2,196.4c0,4,0.7,8.2-0.3,11.9c-0.6,2.4-3.7,4.1-5.7,6.1c-1.6-2-4.4-3.8-4.6-5.9c-0.7-7.6-1-15.4-0.3-23
				c0.2-2.6,3.8-4.9,5.9-7.3c1.6,2.6,3.8,5.1,4.5,8c0.8,3.2,0.4,10.1,0.5,10.1V196.4z"/>
			<path class="cls-3" d="M214.8,363.1c3.2-10.7,5.9-20.5,9.2-30.1c0.4-1.3,4-2.9,5.1-2.4c1.8,0.8,4.3,3.8,3.9,5.2c-2.9,10.3-6.4,20.5-10,30.5
				c-0.4,1.1-3.8,2.3-4.5,1.8C216.8,366.8,215.8,364.5,214.8,363.1z"/>
			<path class="cls-3" d="M172.9,272.2c-4.3,0-8.6,0.5-12.8-0.2c-1.8-0.3-4.3-3-4.4-4.7c0-1.7,2.4-4.9,3.9-5c8.5-0.9,17-1.4,25.6-1.2
				c1.8,0,5.3,3.8,5,4.9c-0.7,2.4-3.1,5.4-5.4,6c-3.7,1-7.9,0.3-11.8,0.3l0,0L172.9,272.2z"/>
			<path class="cls-3" d="M211.5,316.9c-2.8,4.7-3.7,7-5.4,8.7c-5.4,5.4-10.9,10.8-16.8,15.6c-1.6,1.4-4.7,1-7.2,1.4c-0.1-2.8-1.5-6.7-0.2-8.2
				c5.8-6.7,12.1-13,18.9-18.7c1.6-1.3,5.8,0.5,10.6,1.1L211.5,316.9z"/>
			<path class="cls-3" d="M307.2,293.2c7.7,6.6,15,12.8,22,19.3c0.6,0.6-0.601,4.3-1.9,5.4c-1.3,1-4.3,1.5-5.7,0.6c-6.8-4.1-13.399-8.6-19.6-13.4
				c-1.4-1.1-1.9-4.6-1.2-6.4c0.7-1.9,3.4-3,6.5-5.5H307.2z"/>
			<path class="cls-3" d="M197.5,193.1c4.1,3.5,6.1,4.5,7.2,6.2c3.6,5.4,7.5,10.7,10,16.5c1.1,2.5-1,6.4-1.6,9.6c-2.7-1.2-6.5-1.7-8.1-3.7
				c-3.9-5.1-7.5-10.7-9.8-16.6c-1.1-2.7,1.1-6.6,2.2-12H197.5z"/>
			<path class="cls-3" d="M196.8,240.3c-2.8,1.1-5.7,3.4-7.5,2.7c-7.3-2.9-14.5-6.4-21.4-10.3c-1.5-0.8-2.3-4.3-2-6.3c0.2-1.3,3.6-3.5,4.5-3
				c8,3.5,15.9,7.4,23.7,11.5c1,0.5,1.3,2.6,2.6,5.4H196.8z"/>
			<path class="cls-3" d="M307.4,259.3c-1.801-1.3-4-2-4.4-3.3c-0.5-1.4,0.2-4.3,1.3-4.8c8.3-4.3,16.8-8.4,25.4-12.2c1-0.4,4,1.1,4.3,2.3
				c0.5,1.7,0,5-1.1,5.5C324.6,251.2,316,255.1,307.4,259.3L307.4,259.3z"/>
			<path class="cls-3" d="M284.3,321.5c3.5,1.9,5,2.1,5.5,3c4.2,7.1,8.4,14.2,11.9,21.7c0.8,1.6-1.5,4.7-2.4,7.1c-2.2-1.2-5.1-1.8-6.399-3.7
				c-3.801-5.6-7.5-11.4-10.101-17.6c-1.1-2.5,0.8-6.3,1.5-10.6V321.5z"/>
			<path class="cls-3" d="M284.5,182.7c-3.9,11.1-7,20.5-10.8,29.5c-0.4,1-6.8,1.2-7.5,0c-4.3-7.3,6.7-27.2,18.3-29.6V182.7z"/>
			<path class="cls-3" d="M317.9,210.6c-1.801,3.6-2.2,5.5-3.4,6.7c-5.4,5.4-10.7,10.9-16.5,15.8c-1.6,1.4-4.9,0.8-7.4,1.1
				c0.101-2.5-0.699-6,0.601-7.3c6-6.1,12.399-11.7,19.1-17c1.3-1,4.4,0.4,7.7,0.8L317.9,210.6z"/>
			<path class="cls-3" d="M264.8,351.1c0,3.7,0.4,7.4-0.2,11c-0.3,1.7-2.3,4.1-3.699,4.2c-1.4,0.1-4.101-2.1-4.301-3.5
				c-1-7.6-1.699-15.2-1.699-22.9c0-1.9,3.1-3.7,4.699-5.6c1.7,1.9,4.301,3.6,4.801,5.8C265.2,343.6,264.7,351.1,264.8,351.1
				L264.8,351.1z"/>
		</g>
	</g>
</g>
</svg>
