<?xml version="1.0" encoding="utf-8"?>
<!-- Generator: Adobe Illustrator 16.0.0, SVG Export Plug-In . SVG Version: 6.00 Build 0)  -->
<!DOCTYPE svg PUBLIC "-//W3C//DTD SVG 1.1//EN" "http://www.w3.org/Graphics/SVG/1.1/DTD/svg11.dtd">
<svg version="1.1" id="Layer_1" xmlns="http://www.w3.org/2000/svg" xmlns:xlink="http://www.w3.org/1999/xlink" x="0px" y="0px"
	 width="367.897px" height="161.163px" viewBox="65.969 294.378 367.897 161.163"
	 enable-background="new 65.969 294.378 367.897 161.163" xml:space="preserve">
<defs>
    <style>
      .cls-1 {
        fill: #33c2df;
      }

      .cls-1, .cls-2, .cls-3 {
        stroke-width: 0px;
      }

      .cls-2 {
        fill: #f37920;
      }

      .cls-3 {
        fill: #fff;
      }
    </style>
  </defs>
<g>
	<g>
		<path class="cls-1" d="M251.2,332.467v-4.934c2.6-0.867,5.399-1.467,8.2-1.733c2.866-0.267,5.732-0.4,8.533-0.4v77.466
			c0.8-0.133,2.133-0.267,4.133-0.466c2-0.2,4-0.4,6.2-0.601c2.134-0.133,4.2-0.333,6.2-0.399c2-0.134,3.4-0.134,4.267-0.134
			s1.733,0,2.866,0.134c1.134,0.133,2.268,0.267,3.268,0.399c1,0.134,1.933,0.333,2.6,0.601c0.733,0.199,1.066,0.399,1.066,0.466
			v21.4h-41.467l-2-1.667l-0.267-4.533c-0.134-3-0.399-6.934-0.667-11.733c-0.266-4.8-0.533-10.333-0.799-16.466
			c-0.268-6.134-0.534-12.4-0.801-18.667c-0.267-6.333-0.533-12.4-0.8-18.333c-0.267-5.934-0.467-11.067-0.601-15.467v-4.933H251.2z
			"/>
		<path class="cls-1" d="M306,399.4c-0.334-8.334-0.666-16.734-1.066-25.267c-0.4-8.533-0.733-16.933-1.066-25.267
			c-0.334-8.333-0.467-16.267-0.467-23.667h19.933l0.134,99.733l-16.934-1.667c0-7.6-0.133-15.533-0.467-23.866H306z"/>
		<path class="cls-1" d="M345.934,343.133h-15l-0.334-1.8c-0.199-1.2-0.466-2.667-0.666-4.467c-0.2-1.8-0.4-3.533-0.601-5.4
			c-0.133-1.867-0.333-3.467-0.399-4.8c0-0.533,0-1.667-0.066-3.267c0-1.667-0.067-2.733-0.067-3.267h8.067l44.6,1.667l2,1.667
			v18.066h-17.8c-0.134,0-0.267,1.267-0.467,3.8c-0.2,2.533-0.467,5.533-0.667,9.133c-0.2,3.533-0.399,7.267-0.6,11.133
			c-0.134,3.867-0.267,7.066-0.267,9.733c0,2.667,0,2.6-0.067,4.534c0,1.933-0.066,4.133-0.066,6.666s0,4.934-0.066,7.667
			c0,2.666-0.066,5.533-0.066,8.467c0,2.933,0,7.8-0.134,11.267c-0.133,3.467-0.133,6.666-0.133,9.6v6.4H346V343.2L345.934,343.133z
			"/>
	</g>
	<path class="cls-1" d="M399.667,338c-0.667,0-1.601,0.267-2.801,0.8c-1.066,0.467-2.066,1-3.133,1.6s-2.066,1.333-3,2.067
		c-1,0.8-1.733,1.466-2.2,2l-0.333,0.4v5.267c0,6.4,0.133,12.733,0.333,18.8c0.267,6.067,0.533,12.2,0.867,18.2
		c0.333,6,0.666,12.067,0.933,18.067s0.467,12.267,0.667,18.533l0,0c0,0.733,0.667,1.399,1.4,1.399h2.399c1.267,0,2.601,0,3.934,0
		c1.399,0,2.733,0,3.934,0h9.733c3.333,0,6.533,0,9.6-0.199c3.066-0.134,6.667-0.533,10.667-1.134l0,0
		c0.666-0.133,1.199-0.667,1.199-1.399v-83.134c0-0.8-0.6-1.4-1.399-1.4H399.6L399.667,338z M401.6,372
		c-0.267-3.533-0.399-7.267-0.399-11.067c0,0,0.133-0.133,0.2-0.2h15.866c0.733,0,1.333,0.533,1.4,1.267
		c0.133,1.133,0.199,2.267,0.333,3.333c0.2,1.8,0.333,3.6,0.4,5.267c0.133,1.667,0.199,3.4,0.267,5.133
		c0.066,1.733,0.133,3.533,0.133,5.467V391.6c0,1.533,0,3,0,4.467s0,3,0,4.533v0.801c0,0.732-0.533,1.267-1.2,1.399
		c-2.199,0.267-4.399,0.533-6.6,0.601c-2.134,0.133-4.267,0.199-6.467,0.267c-0.8,0-1.399-0.601-1.399-1.4
		c0-2.934-0.2-5.8-0.4-8.601c-0.267-3.6-0.6-7.266-0.934-10.866c-0.333-3.6-0.666-7.2-0.934-10.867L401.6,372z"/>
</g>
<g>
	<path class="cls-2" d="M227.333,374.933c0.667,21.867-10.2,44-26.133,58.734c-22.733,21.133-56.333,28.466-84.8,15.267
		c-25.8-12-45.267-37.4-49.533-65.533c-0.467-3.134-0.733-6.334-0.867-9.534c-0.267-10.8,1.2-21.533,4.733-31.8
		c18.333-53.133,96.667-63.2,133.133-23.466C217.533,333.533,226.667,354.333,227.333,374.933z"/>
	<g id="s2jEJS">
		<g>
			<path class="cls-3" d="M180.133,375.666c0,19.534-14.267,33.734-33.867,33.734c-18.533,0-36.867-16.4-36.8-32.934
				c0.066-19.467,19.6-37.667,40.133-37.534C165.067,339.066,180.133,357.2,180.133,375.666z M134.133,398.667
				c-2.2-3.333-3.867-5.667-5.267-8.134c-8.067-13.8-2.2-29.2,12.933-34.2c7.667-2.534,14.267-0.333,19.467,6.6
				c4.6,6.067,5.067,14.534,1,20.133c-3.2,4.4-8,6.867-12.8,4.4c-2.8-1.4-4.4-5.733-5.733-9c-0.4-1,1.8-3.067,2.8-4.667
				c1.2,1.133,2.534,2.2,3.667,3.4c1.267,1.333,2.333,2.8,3.466,4.2c1.2-1.934,3.133-3.801,3.4-5.801
				c0.667-6.333-3.4-11.399-8.867-11.933c-7.867-0.8-14.867,3.6-14.467,10.6c0.333,6,2.066,12.8,5.533,17.533
				c6.6,9,22.533,8.2,28.533-0.333c7.733-11,5.2-27.867-5.867-38.733c-8.533-8.4-21.2-8.467-32.533-0.133
				c-15.933,11.733-13.8,37.4,4.867,46L134.133,398.667z"/>
			<path class="cls-3" d="M109.867,387.934c-3.133,2.6-4.4,4.199-6.067,4.866c-4.733,1.934-9.533,3.733-14.466,5.134
				c-1.6,0.467-3.6-0.467-5.4-0.733c0.667-1.866,0.733-4.866,2-5.467c5.333-2.601,10.867-4.733,16.534-6.399
				C104.067,384.867,106.267,386.6,109.867,387.934z"/>
			<path class="cls-3" d="M206.067,381.867c-6.134-0.734-11.067-1.134-15.867-2.134c-1.6-0.333-2.867-2.2-4.267-3.333c1.333-1.4,2.8-4.067,4-3.934
				c6.066,0.533,12.066,1.733,18,3c0.733,0.133,1.866,2.733,1.466,3.333C208.467,380.267,206.733,381.334,206.067,381.867
				L206.067,381.867z"/>
			<path class="cls-3" d="M142.867,323.066c0,2.667,0.467,5.467-0.2,7.934c-0.4,1.6-2.466,2.733-3.8,4.066c-1.067-1.333-2.933-2.533-3.067-3.933
				c-0.466-5.067-0.667-10.267-0.2-15.333c0.133-1.733,2.533-3.267,3.933-4.867c1.067,1.733,2.534,3.4,3,5.333
				c0.534,2.133,0.267,6.733,0.333,6.733V323.066z"/>
			<path class="cls-3" d="M123.333,434.2c2.133-7.134,3.933-13.667,6.133-20.067c0.267-0.866,2.667-1.933,3.4-1.6c1.2,0.533,2.867,2.533,2.6,3.467
				c-1.934,6.866-4.267,13.667-6.667,20.333c-0.267,0.733-2.533,1.533-3,1.2C124.667,436.667,124,435.133,123.333,434.2z"/>
			<path class="cls-3" d="M95.4,373.6c-2.867,0-5.733,0.333-8.533-0.133c-1.2-0.2-2.867-2-2.934-3.133c0-1.133,1.6-3.267,2.6-3.333
				c5.667-0.6,11.333-0.934,17.067-0.8c1.2,0,3.533,2.533,3.333,3.267c-0.466,1.6-2.066,3.6-3.6,4c-2.467,0.667-5.267,0.2-7.867,0.2
				l0,0L95.4,373.6z"/>
			<path class="cls-3" d="M121.133,403.4c-1.867,3.133-2.467,4.666-3.6,5.8c-3.6,3.6-7.267,7.2-11.2,10.399c-1.067,0.934-3.133,0.667-4.8,0.934
				c-0.066-1.866-1-4.467-0.133-5.467c3.867-4.467,8.067-8.666,12.6-12.467c1.067-0.866,3.867,0.334,7.067,0.733L121.133,403.4z"/>
			<path class="cls-3" d="M184.867,387.6c5.133,4.4,10,8.533,14.667,12.867c0.4,0.399-0.4,2.866-1.267,3.6c-0.867,0.667-2.867,1-3.8,0.4
				c-4.534-2.733-8.934-5.733-13.067-8.934c-0.933-0.733-1.267-3.066-0.8-4.267c0.466-1.267,2.267-2,4.333-3.667H184.867z"/>
			<path class="cls-3" d="M111.733,320.933c2.733,2.333,4.066,3,4.8,4.133c2.4,3.6,5,7.134,6.667,11c0.733,1.667-0.667,4.267-1.067,6.4
				c-1.8-0.8-4.333-1.133-5.4-2.467c-2.6-3.4-5-7.133-6.533-11.067c-0.733-1.8,0.733-4.4,1.466-8H111.733z"/>
			<path class="cls-3" d="M111.333,352.333c-1.867,0.733-3.8,2.267-5,1.8c-4.867-1.933-9.667-4.267-14.267-6.867c-1-0.533-1.534-2.867-1.333-4.2
				c0.133-0.866,2.4-2.333,3-2c5.333,2.333,10.6,4.934,15.8,7.667c0.667,0.333,0.867,1.733,1.733,3.6H111.333z"/>
			<path class="cls-3" d="M185,365c-1.2-0.867-2.667-1.333-2.933-2.2c-0.333-0.933,0.133-2.867,0.866-3.2c5.534-2.867,11.2-5.6,16.934-8.133
				c0.667-0.267,2.667,0.733,2.867,1.533c0.333,1.133,0,3.333-0.733,3.667C196.467,359.6,190.733,362.2,185,365L185,365z"/>
			<path class="cls-3" d="M169.667,406.467c2.333,1.267,3.333,1.399,3.667,2c2.8,4.733,5.6,9.467,7.933,14.467c0.533,1.066-1,3.133-1.6,4.733
				c-1.466-0.801-3.4-1.2-4.267-2.467c-2.533-3.733-5-7.601-6.733-11.733c-0.733-1.667,0.534-4.2,1-7.066V406.467z"/>
			<path class="cls-3" d="M169.8,314c-2.6,7.4-4.667,13.667-7.2,19.667c-0.267,0.667-4.533,0.8-5,0c-2.867-4.867,4.467-18.133,12.2-19.733V314z"/>
			<path class="cls-3" d="M192,332.6c-1.2,2.4-1.467,3.667-2.267,4.466c-3.6,3.6-7.133,7.267-11,10.534c-1.067,0.933-3.267,0.533-4.934,0.733
				c0.067-1.667-0.466-4,0.4-4.867c4-4.067,8.267-7.8,12.733-11.333c0.866-0.667,2.933,0.267,5.133,0.533L192,332.6z"/>
			<path class="cls-3" d="M156.6,426.267c0,2.467,0.267,4.934-0.133,7.333c-0.2,1.134-1.534,2.733-2.467,2.801c-0.933,0.066-2.733-1.4-2.867-2.334
				C150.467,429,150,423.934,150,418.8c0-1.267,2.067-2.467,3.133-3.733c1.133,1.267,2.867,2.4,3.2,3.867
				C156.867,421.267,156.533,426.267,156.6,426.267z"/>
		</g>
	</g>
</g>
</svg>
