<?xml version="1.0" encoding="UTF-8"?>
<svg id="Layer_1" data-name="Layer 1" xmlns="http://www.w3.org/2000/svg" version="1.1" viewBox="0 0 500 650">
  <defs>
    <style>
      .cls-1 {
        fill: #33c2df;
      }

      .cls-1, .cls-2, .cls-3 {
        stroke-width: 0px;
      }

      .cls-2 {
        fill: #f37920;
      }

      .cls-3 {
        fill: #fff;
      }
    </style>
  </defs>
  <g id="s2jEJS">
    <g>
      <path class="cls-3" d="M300.1,225.1c0,29.3-21.4,50.6-50.8,50.6-27.8,0-55.3-24.6-55.2-49.4.1-29.2,29.4-56.5,60.2-56.3,23.2.2,45.8,27.4,45.8,55.1ZM231.2,259.6c-3.3-5-5.8-8.5-7.9-12.2-12.1-20.7-3.3-43.8,19.4-51.3,11.5-3.8,21.4-.5,29.2,9.9,6.9,9.1,7.6,21.8,1.5,30.2-4.8,6.6-12,10.3-19.2,6.6-4.2-2.1-6.6-8.6-8.6-13.5-.6-1.5,2.7-4.6,4.2-7,1.8,1.7,3.8,3.3,5.5,5.1,1.9,2,3.5,4.2,5.2,6.3,1.8-2.9,4.7-5.7,5.1-8.7,1-9.5-5.1-17.1-13.3-17.9-11.8-1.2-22.3,5.4-21.7,15.9.5,9,3.1,19.2,8.3,26.3,9.9,13.5,33.8,12.3,42.8-.5,11.6-16.5,7.8-41.8-8.8-58.1-12.8-12.6-31.8-12.7-48.8-.2-23.9,17.6-20.7,56.1,7.3,69Z"/>
      <path class="cls-3" d="M198.7,243.5c-4.7,3.9-6.6,6.3-9.1,7.3-7.1,2.9-14.3,5.6-21.7,7.7-2.4.7-5.4-.7-8.1-1.1,1-2.8,1.1-7.3,3-8.2,8-3.9,16.3-7.1,24.8-9.6,2.4-.7,5.7,1.9,11.1,3.9Z"/>
      <path class="cls-3" d="M339.1,234.4c-9.2-1.1-16.6-1.7-23.8-3.2-2.4-.5-4.3-3.3-6.4-5,2-2.1,4.2-6.1,6-5.9,9.1.8,18.1,2.6,27,4.5,1.1.2,2.8,4.1,2.2,5-1.4,2.2-4,3.8-5,4.6Z"/>
      <path class="cls-3" d="M242.2,148.2c0,4,.7,8.2-.3,11.9-.6,2.4-3.7,4.1-5.7,6.1-1.6-2-4.4-3.8-4.6-5.9-.7-7.6-1-15.4-.3-23,.2-2.6,3.8-4.9,5.9-7.3,1.6,2.6,3.8,5.1,4.5,8,.8,3.2.2,6.7.2,10.1.1,0,.2,0,.3,0Z"/>
      <path class="cls-3" d="M214.9,312.9c3.2-10.7,5.9-20.5,9.2-30.1.4-1.3,4-2.9,5.1-2.4,1.8.8,4.3,3.8,3.9,5.2-2.9,10.3-6.4,20.5-10,30.5-.4,1.1-3.8,2.3-4.5,1.8-1.7-1.3-2.7-3.6-3.7-5Z"/>
      <path class="cls-3" d="M173,222c-4.3,0-8.6.5-12.8-.2-1.8-.3-4.3-3-4.4-4.7,0-1.7,2.4-4.9,3.9-5,8.5-.9,17-1.4,25.6-1.2,1.8,0,5.3,3.8,5,4.9-.7,2.4-3.1,5.4-5.4,6-3.7,1-7.9.3-11.8.3,0,0,0,0,0,0Z"/>
      <path class="cls-3" d="M211.6,266.7c-2.8,4.7-3.7,7-5.4,8.7-5.4,5.4-10.9,10.8-16.8,15.6-1.6,1.4-4.7,1-7.2,1.4-.1-2.8-1.5-6.7-.2-8.2,5.8-6.7,12.1-13,18.9-18.7,1.6-1.3,5.8.5,10.6,1.1Z"/>
      <path class="cls-3" d="M307.3,243c7.7,6.6,15,12.8,22,19.3.6.6-.6,4.3-1.9,5.4-1.3,1-4.3,1.5-5.7.6-6.8-4.1-13.4-8.6-19.6-13.4-1.4-1.1-1.9-4.6-1.2-6.4.7-1.9,3.4-3,6.5-5.5Z"/>
      <path class="cls-3" d="M196.5,144c4.1,3.5,6.1,4.5,7.2,6.2,3.6,5.4,7.5,10.7,10,16.5,1.1,2.5-1,6.4-1.6,9.6-2.7-1.2-6.5-1.7-8.1-3.7-3.9-5.1-7.5-10.7-9.8-16.6-1.1-2.7,1.1-6.6,2.2-12Z"/>
      <path class="cls-3" d="M196.9,190.1c-2.8,1.1-5.7,3.4-7.5,2.7-7.3-2.9-14.5-6.4-21.4-10.3-1.5-.8-2.3-4.3-2-6.3.2-1.3,3.6-3.5,4.5-3,8,3.5,15.9,7.4,23.7,11.5,1,.5,1.3,2.6,2.6,5.4Z"/>
      <path class="cls-3" d="M307.4,209.1c-1.8-1.3-4-2-4.4-3.3-.5-1.4.2-4.3,1.3-4.8,8.3-4.3,16.8-8.4,25.4-12.2,1-.4,4,1.1,4.3,2.3.5,1.7,0,5-1.1,5.5-8.3,4.4-16.9,8.3-25.5,12.5Z"/>
      <path class="cls-3" d="M284.4,271.3c3.5,1.9,5,2.1,5.5,3,4.2,7.1,8.4,14.2,11.9,21.7.8,1.6-1.5,4.7-2.4,7.1-2.2-1.2-5.1-1.8-6.4-3.7-3.8-5.6-7.5-11.4-10.1-17.6-1.1-2.5.8-6.3,1.5-10.6Z"/>
      <path class="cls-3" d="M284.6,132.6c-3.9,11.1-7,20.5-10.8,29.5-.4,1-6.8,1.2-7.5,0-4.3-7.3,6.7-27.2,18.3-29.6Z"/>
      <path class="cls-3" d="M318,160.4c-1.8,3.6-2.2,5.5-3.4,6.7-5.4,5.4-10.7,10.9-16.5,15.8-1.6,1.4-4.9.8-7.4,1.1.1-2.5-.7-6,.6-7.3,6-6.1,12.4-11.7,19.1-17,1.3-1,4.4.4,7.7.8Z"/>
      <path class="cls-3" d="M264.9,301c0,3.7.4,7.4-.2,11-.3,1.7-2.3,4.1-3.7,4.2-1.4.1-4.1-2.1-4.3-3.5-1-7.6-1.7-15.2-1.7-22.9,0-1.9,3.1-3.7,4.7-5.6,1.7,1.9,4.3,3.6,4.8,5.8.8,3.5.2,7.3.2,11h.2Z"/>
    </g>
  </g>
  <g>
    <g>
      <path class="cls-1" d="M112.9,400.5v-7.4c3.9-1.3,8.1-2.2,12.3-2.6s8.6-.6,12.8-.6v116.2c1.2-.2,3.2-.4,6.2-.7,3-.3,6-.6,9.3-.9,3.2-.2,6.3-.5,9.3-.6,3-.2,5.1-.2,6.4-.2s2.6,0,4.3.2c1.7.2,3.4.4,4.9.6s2.9.5,3.9.9c1.1.3,1.6.6,1.6.7v32.1h-62.2l-3-2.5-.4-6.8c-.2-4.5-.6-10.4-1-17.6-.4-7.2-.8-15.5-1.2-24.7-.4-9.2-.8-18.6-1.2-28-.4-9.5-.8-18.6-1.2-27.5-.4-8.9-.7-16.6-.9-23.2v-7.4Z"/>
      <path class="cls-1" d="M195.1,501c-.5-12.5-1-25.1-1.6-37.9-.6-12.8-1.1-25.4-1.6-37.9-.5-12.5-.7-24.4-.7-35.5h29.9l.2,149.6-25.4-2.5c0-11.4-.2-23.3-.7-35.8Z"/>
      <path class="cls-1" d="M255.1,416.6h-22.5l-.5-2.7c-.3-1.8-.7-4-1-6.7s-.6-5.3-.9-8.1c-.2-2.8-.5-5.2-.6-7.2,0-.8,0-2.5-.1-4.9,0-2.5-.1-4.1-.1-4.9h12.1l66.9,2.5,3,2.5v27.1h-26.7c-.2,0-.4,1.9-.7,5.7-.3,3.8-.7,8.3-1,13.7-.3,5.3-.6,10.9-.9,16.7s-.4,10.6-.4,14.6,0,3.9-.1,6.8c0,2.9-.1,6.2-.1,10s0,7.4-.1,11.5c0,4-.1,8.3-.1,12.7s0,11.7-.2,16.9c-.2,5.2-.2,10-.2,14.4v9.6h-25.7v-130.1Z"/>
    </g>
    <path class="cls-1" d="M335.7,408.8c-1,0-2.4.4-4.2,1.2-1.6.7-3.1,1.5-4.7,2.4-1.6.9-3.1,2-4.5,3.1-1.5,1.2-2.6,2.2-3.3,3l-.5.6v7.9c0,9.6.2,19.1.5,28.2.4,9.1.8,18.3,1.3,27.3.5,9,1,18.1,1.4,27.1.4,9,.7,18.4,1,27.8h0c0,1.1,1,2.1,2.1,2.1h3.6c1.9,0,3.9,0,5.9,0,2.1,0,4.1,0,5.9,0h14.6c5,0,9.8,0,14.4-.3,4.6-.2,10-.8,16-1.7h0c1-.2,1.8-1,1.8-2.1v-124.7c0-1.2-.9-2.1-2.1-2.1h-49.3ZM338.6,459.8c-.4-5.3-.6-10.9-.6-16.6,0,0,.2-.2.3-.3h23.8c1.1,0,2,.8,2.1,1.9.2,1.7.3,3.4.5,5,.3,2.7.5,5.4.6,7.9.2,2.5.3,5.1.4,7.7.1,2.6.2,5.3.2,8.2v15.6c0,2.3,0,4.5,0,6.7,0,2.2,0,4.5,0,6.8v1.2c0,1.1-.8,1.9-1.8,2.1-3.3.4-6.6.8-9.9.9-3.2.2-6.4.3-9.7.4-1.2,0-2.1-.9-2.1-2.1,0-4.4-.3-8.7-.6-12.9-.4-5.4-.9-10.9-1.4-16.3-.5-5.4-1-10.8-1.4-16.3Z"/>
  </g>
  <g>
    <path class="cls-2" d="M370.9,224.2c1,32.8-15.3,66-39.2,88.1-34.1,31.7-84.5,42.7-127.2,22.9-38.7-18-67.9-56.1-74.3-98.3-.7-4.7-1.1-9.5-1.3-14.3-.4-16.2,1.8-32.3,7.1-47.7,27.5-79.7,145-94.8,199.7-35.2,20.5,22.4,34.2,53.6,35.2,84.5Z"/>
    <g id="s2jEJS-2" data-name="s2jEJS">
      <g>
        <path class="cls-3" d="M300.1,225.3c0,29.3-21.4,50.6-50.8,50.6-27.8,0-55.3-24.6-55.2-49.4.1-29.2,29.4-56.5,60.2-56.3,23.2.2,45.8,27.4,45.8,55.1ZM231.1,259.8c-3.3-5-5.8-8.5-7.9-12.2-12.1-20.7-3.3-43.8,19.4-51.3,11.5-3.8,21.4-.5,29.2,9.9,6.9,9.1,7.6,21.8,1.5,30.2-4.8,6.6-12,10.3-19.2,6.6-4.2-2.1-6.6-8.6-8.6-13.5-.6-1.5,2.7-4.6,4.2-7,1.8,1.7,3.8,3.3,5.5,5.1,1.9,2,3.5,4.2,5.2,6.3,1.8-2.9,4.7-5.7,5.1-8.7,1-9.5-5.1-17.1-13.3-17.9-11.8-1.2-22.3,5.4-21.7,15.9.5,9,3.1,19.2,8.3,26.3,9.9,13.5,33.8,12.3,42.8-.5,11.6-16.5,7.8-41.8-8.8-58.1-12.8-12.6-31.8-12.7-48.8-.2-23.9,17.6-20.7,56.1,7.3,69Z"/>
        <path class="cls-3" d="M194.7,243.7c-4.7,3.9-6.6,6.3-9.1,7.3-7.1,2.9-14.3,5.6-21.7,7.7-2.4.7-5.4-.7-8.1-1.1,1-2.8,1.1-7.3,3-8.2,8-3.9,16.3-7.1,24.8-9.6,2.4-.7,5.7,1.9,11.1,3.9Z"/>
        <path class="cls-3" d="M339,234.5c-9.2-1.1-16.6-1.7-23.8-3.2-2.4-.5-4.3-3.3-6.4-5,2-2.1,4.2-6.1,6-5.9,9.1.8,18.1,2.6,27,4.5,1.1.2,2.8,4.1,2.2,5-1.4,2.2-4,3.8-5,4.6Z"/>
        <path class="cls-3" d="M244.2,146.4c0,4,.7,8.2-.3,11.9-.6,2.4-3.7,4.1-5.7,6.1-1.6-2-4.4-3.8-4.6-5.9-.7-7.6-1-15.4-.3-23,.2-2.6,3.8-4.9,5.9-7.3,1.6,2.6,3.8,5.1,4.5,8,.8,3.2.4,10.1.5,10.1Z"/>
        <path class="cls-3" d="M214.8,313.1c3.2-10.7,5.9-20.5,9.2-30.1.4-1.3,4-2.9,5.1-2.4,1.8.8,4.3,3.8,3.9,5.2-2.9,10.3-6.4,20.5-10,30.5-.4,1.1-3.8,2.3-4.5,1.8-1.7-1.3-2.7-3.6-3.7-5Z"/>
        <path class="cls-3" d="M172.9,222.2c-4.3,0-8.6.5-12.8-.2-1.8-.3-4.3-3-4.4-4.7,0-1.7,2.4-4.9,3.9-5,8.5-.9,17-1.4,25.6-1.2,1.8,0,5.3,3.8,5,4.9-.7,2.4-3.1,5.4-5.4,6-3.7,1-7.9.3-11.8.3,0,0,0,0,0,0Z"/>
        <path class="cls-3" d="M211.5,266.9c-2.8,4.7-3.7,7-5.4,8.7-5.4,5.4-10.9,10.8-16.8,15.6-1.6,1.4-4.7,1-7.2,1.4-.1-2.8-1.5-6.7-.2-8.2,5.8-6.7,12.1-13,18.9-18.7,1.6-1.3,5.8.5,10.6,1.1Z"/>
        <path class="cls-3" d="M307.2,243.2c7.7,6.6,15,12.8,22,19.3.6.6-.6,4.3-1.9,5.4-1.3,1-4.3,1.5-5.7.6-6.8-4.1-13.4-8.6-19.6-13.4-1.4-1.1-1.9-4.6-1.2-6.4.7-1.9,3.4-3,6.5-5.5Z"/>
        <path class="cls-3" d="M197.5,143.1c4.1,3.5,6.1,4.5,7.2,6.2,3.6,5.4,7.5,10.7,10,16.5,1.1,2.5-1,6.4-1.6,9.6-2.7-1.2-6.5-1.7-8.1-3.7-3.9-5.1-7.5-10.7-9.8-16.6-1.1-2.7,1.1-6.6,2.2-12Z"/>
        <path class="cls-3" d="M196.8,190.3c-2.8,1.1-5.7,3.4-7.5,2.7-7.3-2.9-14.5-6.4-21.4-10.3-1.5-.8-2.3-4.3-2-6.3.2-1.3,3.6-3.5,4.5-3,8,3.5,15.9,7.4,23.7,11.5,1,.5,1.3,2.6,2.6,5.4Z"/>
        <path class="cls-3" d="M307.4,209.3c-1.8-1.3-4-2-4.4-3.3-.5-1.4.2-4.3,1.3-4.8,8.3-4.3,16.8-8.4,25.4-12.2,1-.4,4,1.1,4.3,2.3.5,1.7,0,5-1.1,5.5-8.3,4.4-16.9,8.3-25.5,12.5Z"/>
        <path class="cls-3" d="M284.3,271.5c3.5,1.9,5,2.1,5.5,3,4.2,7.1,8.4,14.2,11.9,21.7.8,1.6-1.5,4.7-2.4,7.1-2.2-1.2-5.1-1.8-6.4-3.7-3.8-5.6-7.5-11.4-10.1-17.6-1.1-2.5.8-6.3,1.5-10.6Z"/>
        <path class="cls-3" d="M284.5,132.7c-3.9,11.1-7,20.5-10.8,29.5-.4,1-6.8,1.2-7.5,0-4.3-7.3,6.7-27.2,18.3-29.6Z"/>
        <path class="cls-3" d="M317.9,160.6c-1.8,3.6-2.2,5.5-3.4,6.7-5.4,5.4-10.7,10.9-16.5,15.8-1.6,1.4-4.9.8-7.4,1.1.1-2.5-.7-6,.6-7.3,6-6.1,12.4-11.7,19.1-17,1.3-1,4.4.4,7.7.8Z"/>
        <path class="cls-3" d="M264.8,301.1c0,3.7.4,7.4-.2,11-.3,1.7-2.3,4.1-3.7,4.2-1.4.1-4.1-2.1-4.3-3.5-1-7.6-1.7-15.2-1.7-22.9,0-1.9,3.1-3.7,4.7-5.6,1.7,1.9,4.3,3.6,4.8,5.8.8,3.5.3,11,.4,11Z"/>
      </g>
    </g>
  </g>
</svg>