<?xml version="1.0" encoding="utf-8"?>
<!-- Generator: Adobe Illustrator 16.0.0, SVG Export Plug-In . SVG Version: 6.00 Build 0)  -->
<!DOCTYPE svg PUBLIC "-//W3C//DTD SVG 1.1//EN" "http://www.w3.org/Graphics/SVG/1.1/DTD/svg11.dtd">
<svg version="1.1" id="Layer_1" xmlns="http://www.w3.org/2000/svg" xmlns:xlink="http://www.w3.org/1999/xlink" x="0px" y="0px"
	 width="242.09px" height="241.744px" viewBox="0 0 242.09 241.744" enable-background="new 0 0 242.09 241.744"
	 xml:space="preserve">
<g>
	<path fill="#F27920" d="M242.047,120.833c1,32.8-15.301,66-39.201,88.1c-34.1,31.7-84.5,42.7-127.2,22.9
		c-38.7-18-67.9-56.1-74.3-98.301c-0.7-4.699-1.1-9.5-1.3-14.299c-0.4-16.2,1.8-32.3,7.1-47.7c27.5-79.7,145-94.8,199.7-35.2
		C227.346,58.733,241.047,89.933,242.047,120.833L242.047,120.833z"/>
	<g id="s2jEJS-2">
		<g>
			<path fill="#FFFFFF" d="M171.246,121.933c0,29.301-21.4,50.6-50.8,50.6c-27.8,0-55.3-24.6-55.2-49.399
				c0.1-29.2,29.4-56.5,60.2-56.3C148.646,67.033,171.246,94.233,171.246,121.933z M102.246,156.433c-3.3-5-5.8-8.5-7.9-12.199
				c-12.1-20.701-3.3-43.801,19.4-51.301c11.5-3.8,21.4-0.5,29.199,9.9c6.9,9.1,7.602,21.8,1.5,30.199
				c-4.799,6.601-12,10.301-19.2,6.601c-4.2-2.101-6.6-8.601-8.6-13.5c-0.6-1.5,2.7-4.6,4.2-7c1.8,1.7,3.8,3.3,5.5,5.1
				c1.899,2,3.5,4.2,5.2,6.299c1.8-2.899,4.7-5.699,5.1-8.699c1-9.5-5.1-17.1-13.3-17.9c-11.8-1.2-22.3,5.4-21.7,15.9
				c0.5,9,3.1,19.199,8.3,26.3c9.9,13.5,33.8,12.3,42.8-0.5c11.6-16.5,7.801-41.8-8.801-58.1c-12.799-12.6-31.799-12.7-48.799-0.2
				c-23.9,17.6-20.7,56.1,7.3,69L102.246,156.433z"/>
			<path fill="#FFFFFF" d="M65.846,140.333c-4.7,3.9-6.6,6.3-9.1,7.3c-7.1,2.899-14.3,5.601-21.7,7.7c-2.4,0.699-5.4-0.7-8.1-1.1
				c1-2.801,1.1-7.301,3-8.201c8-3.899,16.3-7.1,24.8-9.6C57.146,135.733,60.446,138.333,65.846,140.333z"/>
			<path fill="#FFFFFF" d="M210.146,131.133c-9.201-1.101-16.6-1.7-23.801-3.2c-2.4-0.5-4.299-3.3-6.4-5c2-2.1,4.201-6.1,6-5.9
				c9.102,0.8,18.102,2.6,27,4.5c1.102,0.2,2.801,4.1,2.201,5C213.746,128.733,211.146,130.333,210.146,131.133L210.146,131.133z"/>
			<path fill="#FFFFFF" d="M115.346,43.033c0,4,0.7,8.2-0.3,11.9c-0.6,2.4-3.7,4.1-5.7,6.1c-1.6-2-4.4-3.8-4.6-5.9
				c-0.7-7.6-1-15.4-0.3-23c0.2-2.6,3.8-4.9,5.9-7.3c1.6,2.6,3.8,5.1,4.5,8c0.8,3.2,0.4,10.1,0.5,10.1V43.033z"/>
			<path fill="#FFFFFF" d="M85.946,209.732c3.2-10.699,5.9-20.499,9.2-30.1c0.4-1.3,4-2.899,5.1-2.399
				c1.8,0.799,4.3,3.799,3.9,5.199c-2.9,10.301-6.4,20.5-10,30.5c-0.4,1.101-3.8,2.3-4.5,1.8
				C87.946,213.433,86.946,211.133,85.946,209.732z"/>
			<path fill="#FFFFFF" d="M44.046,118.833c-4.3,0-8.6,0.5-12.8-0.2c-1.8-0.3-4.3-3-4.4-4.7c0-1.7,2.4-4.9,3.9-5
				c8.5-0.9,17-1.4,25.6-1.2c1.8,0,5.3,3.8,5,4.9c-0.7,2.4-3.1,5.4-5.4,6c-3.7,1-7.9,0.3-11.8,0.3l0,0L44.046,118.833z"/>
			<path fill="#FFFFFF" d="M82.646,163.532c-2.8,4.701-3.7,7-5.4,8.701c-5.4,5.399-10.9,10.799-16.8,15.6c-1.6,1.4-4.7,1-7.2,1.4
				c-0.1-2.801-1.5-6.701-0.2-8.201c5.8-6.699,12.1-13,18.9-18.699c1.6-1.301,5.8,0.5,10.6,1.1L82.646,163.532z"/>
			<path fill="#FFFFFF" d="M178.346,139.833c7.701,6.6,15,12.8,22,19.3c0.6,0.601-0.6,4.3-1.9,5.399c-1.299,1-4.299,1.5-5.699,0.601
				c-6.801-4.101-13.4-8.601-19.6-13.399c-1.4-1.101-1.9-4.601-1.201-6.4c0.701-1.9,3.4-3,6.5-5.5H178.346z"/>
			<path fill="#FFFFFF" d="M68.646,39.733c4.1,3.5,6.1,4.5,7.2,6.2c3.6,5.4,7.5,10.7,10,16.5c1.1,2.5-1,6.4-1.6,9.6
				c-2.7-1.2-6.5-1.7-8.1-3.7c-3.9-5.1-7.5-10.7-9.8-16.6c-1.1-2.7,1.1-6.6,2.2-12H68.646z"/>
			<path fill="#FFFFFF" d="M67.946,86.933c-2.8,1.1-5.7,3.4-7.5,2.7c-7.3-2.9-14.5-6.4-21.4-10.3c-1.5-0.8-2.3-4.3-2-6.3
				c0.2-1.3,3.6-3.5,4.5-3c8,3.5,15.9,7.4,23.7,11.5c1,0.5,1.3,2.6,2.6,5.4H67.946z"/>
			<path fill="#FFFFFF" d="M178.547,105.933c-1.801-1.3-4-2-4.4-3.3c-0.5-1.4,0.199-4.3,1.299-4.8c8.301-4.3,16.801-8.4,25.4-12.2
				c1-0.4,4,1.1,4.301,2.3c0.5,1.7,0,5-1.1,5.5C195.746,97.833,187.146,101.733,178.547,105.933L178.547,105.933z"/>
			<path fill="#FFFFFF" d="M155.445,168.133c3.5,1.899,5,2.101,5.5,3c4.201,7.101,8.4,14.2,11.9,21.7c0.801,1.6-1.5,4.7-2.4,7.1
				c-2.199-1.2-5.1-1.8-6.398-3.7c-3.801-5.6-7.5-11.399-10.102-17.6c-1.1-2.5,0.801-6.3,1.5-10.601V168.133z"/>
			<path fill="#FFFFFF" d="M155.646,29.333c-3.9,11.1-7,20.5-10.801,29.5c-0.4,1-6.799,1.2-7.5,0c-4.299-7.3,6.701-27.2,18.301-29.6
				V29.333z"/>
			<path fill="#FFFFFF" d="M189.047,57.233c-1.801,3.6-2.201,5.5-3.4,6.7c-5.4,5.4-10.701,10.9-16.5,15.8c-1.6,1.4-4.9,0.8-7.4,1.1
				c0.1-2.5-0.699-6,0.6-7.3c6-6.1,12.4-11.7,19.1-17c1.301-1,4.4,0.4,7.701,0.8L189.047,57.233z"/>
			<path fill="#FFFFFF" d="M135.945,197.732c0,3.7,0.4,7.4-0.199,11c-0.301,1.7-2.3,4.101-3.7,4.2c-1.4,0.101-4.101-2.1-4.301-3.5
				c-1-7.6-1.699-15.199-1.699-22.9c0-1.899,3.1-3.699,4.699-5.6c1.7,1.9,4.301,3.6,4.801,5.801
				C136.346,190.233,135.846,197.732,135.945,197.732L135.945,197.732z"/>
		</g>
	</g>
</g>
</svg>
